<svg width="300" height="300" viewBox="0 0 300 300" fill="none" xmlns="http://www.w3.org/2000/svg">
<path d="M233.24 228.987C233.853 225.42 233.78 222.067 233.03 218.913C237.707 218.783 242.397 218.567 247.083 218.247H247.133C254.07 217.66 259.82 214.803 264.383 209.673C269.1 204.39 271.217 198.247 270.737 191.233C270.367 185.7 268.453 180.883 265.003 176.77C267.623 176.41 269.397 176.043 270.323 175.687L270.427 175.637C277.74 172.91 283.337 168.193 287.21 161.487L287.263 161.437C291.523 154.177 291.813 146.313 288.143 137.83V137.887C284.72 129.26 277.3 124.027 265.88 122.187H265.983C264.317 121.867 262.473 121.63 260.46 121.46C260.947 120.697 261.393 119.883 261.8 119.03L261.853 118.927C264.687 112.68 265.01 106.293 262.837 99.7667C262.817 99.7267 262.8 99.6733 262.78 99.6133C260.417 93.1067 256.25 88.3 250.283 85.2033H250.337C245.133 82.2467 237.853 81.1967 228.49 82.0533V82C221.69 82.5533 193.51 88.73 143.943 100.54C144.083 100.3 144.22 100.057 144.357 99.8167V99.87C147.93 93.8133 150.667 87.1533 152.567 79.88L152.517 79.9333C154.78 71.8167 153.983 63.1567 150.14 53.96C145.673 43.0433 137.31 38.3567 125.037 39.91H124.987C113.167 41.0733 105.527 48.9067 102.057 63.41C99.8733 72.6567 97.7033 78.7833 95.5467 81.7967L95.5 81.85C93.11 84.5633 89.2 87.4567 83.7733 90.5267C83.74 90.54 83.7033 90.5567 83.67 90.5767C75.9067 94.81 69.8633 101.25 65.5433 109.893V109.84C64.2333 112.39 63.08 115.003 62.08 117.69C57.7767 114.9 54.0233 113.64 50.8233 113.923C40.1433 113.5 31.6 119.82 25.2067 132.877L25.2567 132.823C20.7533 141.717 17.8267 151.58 16.4767 162.42V162.473C15.1633 173.417 16.37 184.4 20.09 195.423L20.14 195.477C24.3067 208.47 34.7733 215.24 51.54 215.773C52.43 215.803 53.2567 215.683 54.02 215.417C68.2367 240.43 96.7133 247.573 139.44 236.85C160.967 243.857 183.16 248.453 206.017 250.637H206.067C212.537 251.257 218.427 249.45 223.73 245.213C229.047 240.937 232.213 235.537 233.24 228.987ZM142.03 222.633C140.677 222.19 139.317 222.16 137.95 222.53C95.96 233.523 70.3633 224.433 61.1533 195.26C60.5967 193.383 59.4667 191.973 57.7433 191.027C56.0133 190.087 54.2033 189.897 52.3233 190.453C50.4433 191.007 49.03 192.14 48.0867 193.863C47.1433 195.593 46.9567 197.4 47.5167 199.283C47.6933 199.923 47.8833 200.56 48.0867 201.197C40.7333 200.127 35.8967 196.67 33.5733 190.817L33.6267 190.87C30.6033 181.937 29.6033 173.033 30.63 164.163C31.7567 155.037 34.2033 146.72 37.9633 139.227L38.0167 139.17C41.4033 132.25 45.67 128.58 50.8267 128.167C52.66 128.52 55.1033 129.967 58.16 132.51C57.9767 133.557 57.8267 134.607 57.6933 135.657C57.45 137.607 57.9333 139.357 59.14 140.923C60.3567 142.473 61.94 143.37 63.89 143.613C65.84 143.857 67.6 143.377 69.16 142.163C70.7067 140.95 71.6033 139.367 71.8467 137.413C72.7733 129.86 74.9067 122.837 78.25 116.34V116.287C81.2067 110.37 85.3233 105.943 90.5933 103.017L90.6967 102.963C98.1233 98.7733 103.39 94.74 106.5 90.88L106.553 90.8267C109.887 87.0667 113.003 79.0233 115.903 66.7067C117.663 59.3267 121.297 55.1067 126.8 54.0533H126.853C131.77 53.42 135.16 55.21 137.027 59.4267C139.513 65.3733 140.1 70.97 138.78 76.2133L138.727 76.2633C137.187 82.2167 134.967 87.6733 132.063 92.6367V92.69C128.497 98.8 126.31 104.207 125.507 108.907C125.463 109.047 125.43 109.183 125.403 109.32C125.357 109.587 125.32 109.867 125.3 110.147C125.14 112.42 125.21 116.673 125.507 122.91V123.01C125.69 127.91 124.173 134.053 120.963 141.447H120.913C117.647 148.677 111.397 154.55 102.163 159.057C100.403 159.927 99.1967 161.28 98.55 163.137C97.9 164.99 98.0033 166.797 98.86 168.563C99.7233 170.327 101.087 171.537 102.94 172.18C104.783 172.827 106.59 172.727 108.363 171.867C121.17 165.633 129.727 157.39 134.03 147.13H133.98C138.32 137.217 140.247 128.937 139.763 122.287V122.187C139.657 119.893 139.583 117.913 139.553 116.247C192.683 103.54 222.743 96.8767 229.727 96.2567V96.2033C235.653 95.6833 240.283 96.2133 243.62 97.8033H243.677C246.337 99.23 248.213 101.397 249.303 104.313C249.323 104.363 249.34 104.413 249.36 104.463C250.28 107.35 250.123 110.173 248.893 112.933C248.877 112.97 248.857 113.007 248.84 113.04C247.61 115.573 245.683 117.327 243.057 118.31L243.11 118.253C238.84 119.8 234.533 121.213 230.197 122.49C230.067 122.523 229.93 122.56 229.787 122.593C229.11 122.83 227.23 123.397 224.157 124.3C224 124.323 223.843 124.36 223.69 124.403C208.787 128.75 188.903 132.797 164.037 136.54C162.083 136.827 160.517 137.753 159.34 139.327C158.173 140.923 157.743 142.697 158.047 144.65C158.33 146.583 159.26 148.133 160.837 149.303C162.42 150.46 164.177 150.893 166.103 150.593C191.67 146.78 212.14 142.647 227.51 138.197C243.66 135.573 255.657 134.917 263.507 136.233H263.613C269.277 137.14 273.083 139.553 275.027 143.463V143.513C276.723 147.43 276.67 151.063 274.87 154.417L274.923 154.36C272.757 158.09 269.64 160.727 265.573 162.263C260.373 163.91 227.87 166.15 168.067 168.98C167.98 168.973 167.893 168.973 167.81 168.98C165.89 169.06 164.27 169.817 162.953 171.253C161.623 172.693 160.983 174.38 161.043 176.317C161.113 178.263 161.85 179.917 163.263 181.273C164.67 182.613 166.34 183.27 168.273 183.233C168.36 183.233 168.447 183.233 168.533 183.233C216.6 182.477 241.907 182.033 244.453 181.893H244.553C247.613 181.677 250.3 182.533 252.61 184.473L252.663 184.523C254.993 186.573 256.267 189.127 256.483 192.173C256.693 195.217 255.78 197.883 253.747 200.177C251.713 202.467 249.147 203.737 246.053 203.997C241.213 204.34 236.377 204.573 231.54 204.72C228.113 204.783 224.58 204.817 220.953 204.82C220.613 204.79 220.27 204.79 219.92 204.82C202.423 204.797 182.337 203.577 159.647 201.153C157.7 200.947 155.963 201.463 154.43 202.703C152.893 203.93 152.013 205.52 151.797 207.453C151.59 209.403 152.107 211.137 153.347 212.667C154.573 214.203 156.16 215.087 158.1 215.303C180.343 217.683 200.16 218.937 217.543 219.073C217.573 219.123 217.61 219.173 217.647 219.23C219.157 221.393 219.673 223.877 219.197 226.663V226.72C218.71 229.677 217.267 232.117 214.857 234.047C212.6 235.86 210.103 236.673 207.37 236.48C184.917 234.317 163.137 229.697 142.03 222.633Z" fill="white"/>
</svg>
