<svg width="300" height="300" viewBox="0 0 300 300" fill="none" xmlns="http://www.w3.org/2000/svg">
<path d="M192.05 250.883C198.727 245.103 202.023 238.163 201.94 230.073C201.94 229.86 201.94 229.647 201.94 229.433C210.39 228.277 218.16 225.153 225.26 220.057L225.327 219.99C236.163 211.977 241.473 202.32 241.253 191.023C241.243 188.32 240.947 185.683 240.353 183.12C241.34 182.48 242.39 181.793 243.497 181.07C243.627 180.953 243.757 180.85 243.883 180.747C251.037 175.743 254.617 167.737 254.61 156.72C254.863 150.577 252.703 144.323 248.127 137.967C250.31 136.707 252.407 135.317 254.42 133.793C255.463 133.06 256.663 132.117 258.017 130.967C258.51 130.54 258.96 130.067 259.367 129.55C259.46 129.423 259.57 129.273 259.69 129.1C270.317 119.377 275.52 109.713 275.297 100.137C275.853 90.22 270.737 80.6067 259.947 71.29L259.88 71.23C242.22 55.4167 219.803 52.29 192.627 61.8533C192.023 61.1967 191.403 60.5333 190.763 59.86V59.9267C176.943 45.51 161.74 38.3767 145.157 38.5333C133.447 38.2167 120.127 44.1233 105.203 56.2633L105.137 56.33C96.2933 63.16 88.8866 73.7333 82.9133 88.06C79.3099 86.1367 75.6933 85.26 72.0566 85.4267C58.7733 84.9033 48.1533 92.7567 40.1933 109.003L40.2599 108.937C34.6633 120.087 31.0233 132.357 29.3433 145.743V145.803C27.7166 159.413 29.2133 173.117 33.8399 186.913L33.9066 186.98C38.7199 202.013 50.3066 210.337 68.6566 211.967C70.5333 215.65 72.9766 219.507 75.9799 223.53L76.0433 223.597C86.3833 238.347 103.767 243.68 128.2 239.59C129.99 241.627 132.047 243.683 134.37 245.76V245.827C144.567 254.973 155.163 259.403 166.167 259.123H166.293C177.557 258.903 186.1 256.203 191.923 251.027C191.957 250.963 192.003 250.923 192.05 250.883ZM168.477 182.027C168.603 182.1 168.73 182.187 168.86 182.283C169.72 182.793 170.577 183.313 171.43 183.823C177.83 187.677 184.573 190.397 191.66 191.98C196.827 193.143 202.137 193.72 207.59 193.713C213.137 193.71 218.447 192.96 223.52 191.467C223.153 196.917 220.26 201.65 214.847 205.663L214.78 205.73C208.717 210.06 201.91 212.223 194.353 212.217C185.393 212.213 177.04 209.853 169.3 205.153L169.367 205.213C161.497 200.317 157.45 194.003 157.227 186.263C157.223 183.16 158.207 180.85 160.18 179.33H160.31C161.173 178.777 162.137 178.343 163.2 178.043C164.81 179.413 166.57 180.743 168.477 182.027ZM193.14 144.13C193.497 144.237 193.84 144.32 194.17 144.387C195.11 144.557 196.053 144.727 196.997 144.897L196.547 144.77C203.56 146.44 210.63 147.04 217.743 146.567H217.807C222.067 146.32 226.33 145.703 230.593 144.703C234.48 148.893 236.577 152.897 236.89 156.713C236.883 160.9 235.793 164.087 233.613 166.287L233.417 166.48C233.35 166.52 233.29 166.563 233.223 166.61C232.033 167.377 230.92 168.13 229.883 168.86H229.82C228.643 169.693 227.55 170.447 226.543 171.107C226.44 171.16 226.333 171.223 226.223 171.3C225.72 171.497 225.227 171.753 224.747 172.07C224.4 172.177 224.057 172.3 223.717 172.453C218.723 174.817 213.35 175.997 207.593 175.987C203.46 175.98 199.433 175.53 195.517 174.643C190.277 173.483 185.287 171.493 180.55 168.667C179.697 168.153 178.84 167.637 177.98 167.123C175.7 165.527 173.773 163.813 172.2 161.987V162.053C168.993 158.237 167.39 153.893 167.383 149.01C167.387 145.713 168.5 143.273 170.727 141.69V141.623C173.593 140.03 177.323 139.24 181.903 139.25C185.127 141.18 188.873 142.803 193.14 144.13ZM248.257 84.65L248.32 84.7167C254.197 89.7767 257.28 94.83 257.57 99.87C257.093 105.153 253.69 110.653 247.357 116.38C247.067 116.66 246.79 116.963 246.523 117.28C246.297 117.557 246.08 117.813 245.883 118.053C245.297 118.527 244.763 118.93 244.28 119.273C244.173 119.363 244.067 119.45 243.957 119.53C240.613 122.1 236.91 124.157 232.843 125.7C231.5 126.09 230.13 126.477 228.733 126.853C224.73 127.963 220.727 128.623 216.72 128.847H216.657C211.287 129.227 205.953 128.797 200.66 127.56C200.51 127.517 200.357 127.477 200.21 127.433C199.437 127.29 198.663 127.143 197.897 126.983C197.13 126.737 196.377 126.483 195.65 126.21C198.603 124.583 201.17 122.337 203.357 119.467C203.393 119.4 203.433 119.337 203.49 119.277C206.337 115.483 208.18 110.92 209.01 105.597C210.773 106.33 213.343 107.443 216.72 108.933C218.98 109.937 221.247 110 223.53 109.13C225.797 108.24 227.423 106.68 228.41 104.437C229.417 102.183 229.48 99.9167 228.607 97.6267C227.713 95.3633 226.153 93.7367 223.917 92.75C216.087 89.2733 211.353 87.43 209.72 87.2233C209.443 87.19 209.163 87.17 208.887 87.1567C208.553 87.1267 208.233 87.1067 207.923 87.09C207.877 86.9367 207.837 86.7833 207.793 86.6433C207.773 86.5433 207.75 86.4367 207.727 86.3233C206.78 83.2633 205.43 80.18 203.68 77.07C221.43 72.1233 236.287 74.6467 248.257 84.65ZM90.2399 212.987L90.1733 212.92C83.4599 203.86 81.1499 196.583 83.2333 191.08C84.3833 188.913 84.5999 186.663 83.8766 184.337C83.1633 181.993 81.7299 180.24 79.5733 179.073C77.4133 177.923 75.1633 177.71 72.8299 178.433C70.4899 179.15 68.7333 180.587 67.5633 182.733C65.5699 185.94 64.4133 189.407 64.0966 193.14C57.4866 191.177 52.9899 187.2 50.6066 181.19L50.6699 181.257C46.9099 170.07 45.6699 158.96 46.9433 147.923V147.857C48.3533 136.6 51.3966 126.28 56.0666 116.893L56.1299 116.833C60.3433 108.223 65.6499 103.66 72.0599 103.15C73.6266 103.36 75.2299 104.087 76.8766 105.333C75.5766 109.84 74.3766 114.59 73.2799 119.593C72.7666 121.977 73.1733 124.207 74.4999 126.273C75.8133 128.353 77.6533 129.657 80.0233 130.193C82.4099 130.71 84.6366 130.303 86.7033 128.973C88.7766 127.657 90.0833 125.823 90.6199 123.447C96.2999 97.5033 104.843 79.7333 116.25 70.1333L116.317 70.0667C127.23 61.18 136.847 56.5733 145.157 56.2567C157.01 56.4367 167.927 61.7467 177.917 72.19C179.67 74.01 181.26 75.8333 182.67 77.65C182.713 77.71 182.753 77.7767 182.797 77.84C182.977 78.09 183.167 78.3267 183.377 78.5467C186.9 83.0367 189.36 87.43 190.763 91.7133L190.697 91.3933C191.117 92.8767 191.44 94.3533 191.66 95.8233C191.653 95.94 191.653 96.0433 191.66 96.1467C191.733 96.95 191.78 97.7833 191.79 98.65C191.787 102.77 190.887 106.177 189.09 108.86L189.217 108.733C187.67 110.767 185.487 111.73 182.667 111.623C181.377 111.64 180.133 111.487 178.94 111.173L178.747 111.107H178.68C176.033 110.207 173.55 108.577 171.23 106.23H171.167C165.46 100.58 161.307 96.53 158.703 94.0833C158.343 93.24 157.827 92.4533 157.163 91.71C155.643 90.0233 153.76 89.06 151.51 88.82C149.25 88.57 147.197 89.1 145.343 90.4267C143.507 91.77 142.35 93.55 141.873 95.7567C140.947 98.9233 141.44 103.223 143.35 108.67L143.417 108.8C144.36 111.373 144.893 113.257 145.023 114.45C144.853 119.97 142.59 125.687 138.213 131.603L138.147 131.663C134.023 137.077 129.76 140.23 125.363 141.107C122.953 141.43 121.007 142.567 119.517 144.51C118.013 146.457 117.41 148.64 117.72 151.063C118.043 153.473 119.177 155.42 121.123 156.91C123.07 158.41 125.253 159.013 127.68 158.707C135.493 157.973 142.877 153.543 149.84 145.413C149.71 146.573 149.643 147.77 149.643 149.007C149.643 154.1 150.56 158.873 152.407 163.333C151.773 163.693 151.153 164.083 150.54 164.49C143.177 168.973 139.497 176.227 139.493 186.263C139.48 187.243 139.5 188.207 139.56 189.153C133.923 189.917 129.127 192.783 125.173 197.763L125.11 197.827C120.913 202.877 118.817 209.253 118.813 216.97C118.783 218.897 118.977 220.823 119.39 222.75C106.257 223.78 96.5333 220.523 90.2399 212.987ZM165.907 241.38C159.14 241.233 152.567 238.297 146.183 232.577V232.643C143.363 230.07 141.117 227.54 139.44 225.067L139.313 224.87C139.203 224.707 139.097 224.557 138.99 224.42C137.44 221.917 136.627 219.433 136.55 216.97C136.547 213.76 137.337 211.077 138.93 208.943L138.993 208.877C140.073 207.507 141.403 206.777 142.977 206.693C143.377 206.687 143.7 206.687 143.94 206.693C144.083 206.75 144.233 206.813 144.39 206.883C144.893 207.14 145.41 207.353 145.933 207.527C149.29 212.263 153.98 216.503 160 220.247L160.067 220.307C167.483 224.81 175.32 227.743 183.577 229.11C183.78 229.413 184.017 229.71 184.283 230.01L184.22 230.077C184.137 232.893 182.937 235.33 180.62 237.397C177.22 239.913 172.36 241.24 166.04 241.383H165.907V241.38Z" fill="white"/>
</svg>
