<svg width="300" height="300" viewBox="0 0 300 300" fill="none" xmlns="http://www.w3.org/2000/svg">
<path d="M19.97 177.347C24.3767 191.107 35.4567 198.27 53.22 198.833C53.78 198.853 54.3267 198.817 54.8533 198.723C56.3767 201.033 58.18 203.257 60.27 205.4C68.07 213.47 77.2367 217.48 87.7767 217.427C88.8433 217.45 90.5433 217.267 92.86 216.883C94.0333 216.693 94.78 216.583 95.1067 216.553C95.3167 216.553 95.51 216.553 95.7067 216.553C97.5867 220.06 100.23 223.573 103.637 227.107L103.69 227.16C111.887 235.703 120.8 239.893 130.433 239.737C138.843 239.7 146.207 237.353 152.523 232.683C159.79 227.34 163.29 221.127 163.027 214.037C163.027 213.917 163.027 213.787 163.027 213.653C172.227 213.347 180.61 210.887 188.183 206.273L188.24 206.213C198.363 199.863 203.27 192.117 202.95 182.973C203.01 179.817 202.5 176.777 201.417 173.837C210.41 175.523 219.597 176.977 228.98 178.213C248.367 180.757 261.53 181.483 268.463 180.4C268.5 180.38 268.537 180.36 268.573 180.343C277.567 178.95 284.477 173.937 289.3 165.307L289.243 165.36C294.33 156.86 294.223 147.257 288.913 136.54C284.623 125.997 270.733 119.853 247.243 118.113C246.97 118.09 246.693 118.073 246.423 118.057C262.837 112.993 272.827 106.627 276.39 98.9733L276.447 98.9167C282.18 88.2533 282.96 79.6667 278.8 73.1633C275.41 66.8667 270.327 62.5333 263.543 60.1467H263.65C257.873 57.9933 251.297 57.0467 243.907 57.3033H243.797C237.087 57.3633 223.67 60.8467 203.553 67.7433C187.8 73.1367 174.73 78.3867 164.34 83.4967C161.75 78.8467 158.137 74.1133 153.513 69.28C141.75 56.9967 128.807 50.9333 114.687 51.0667C104.7 50.8033 93.3467 55.82 80.6167 66.1067C73.0767 71.96 66.7767 80.98 61.69 93.1733C58.6233 91.5767 55.5433 90.8467 52.4533 90.9867C41.1633 90.5533 32.0833 97.24 25.22 111.057C20.5533 120.533 17.5067 130.963 16.0867 142.34C14.6267 153.97 15.92 165.637 19.97 177.347ZM130.597 206.38H130.657C135.767 209.057 141.127 211.003 146.73 212.237C147.037 212.863 147.433 213.47 147.933 214.04C147.673 216.423 146.213 218.59 143.557 220.55C139.807 223.313 135.437 224.677 130.43 224.65C124.773 224.493 119.487 221.85 114.57 216.717L114.52 216.667C109.977 211.957 107.587 207.363 107.353 202.88C107.353 200.193 108.023 197.917 109.377 196.043L109.43 195.99C110.353 194.877 111.48 194.297 112.823 194.243C113.45 194.24 113.867 194.24 114.08 194.243C114.147 194.257 114.197 194.277 114.25 194.3H114.03C114.883 194.72 115.743 194.977 116.6 195.063C119.757 199.343 124.423 203.113 130.597 206.38ZM38.78 117.74C42.42 110.393 46.9767 106.51 52.4533 106.087C53.7867 106.267 55.1567 106.887 56.5533 107.947C55.4467 111.78 54.4233 115.83 53.4867 120.09C53.05 122.117 53.3967 124.013 54.53 125.777C55.65 127.543 57.22 128.657 59.23 129.113C61.26 129.553 63.1633 129.207 64.92 128.077C66.6833 126.957 67.7967 125.387 68.26 123.37C73.1033 101.253 80.3967 86.07 90.13 77.82C99.4267 70.3133 107.61 66.43 114.687 66.1667C124.77 66.32 134.067 70.84 142.577 79.73V79.6733C147.973 85.3167 151.6 90.77 153.457 96.0233C153.477 96.08 153.497 96.1333 153.517 96.1867C154.083 98.2133 154.383 100.237 154.39 102.257C154.39 105.73 153.64 108.57 152.15 110.79C150.84 112.483 148.993 113.287 146.623 113.193C143.05 113.103 139.787 111.607 136.837 108.713C132.033 103.953 128.517 100.527 126.283 98.43C125.983 97.6567 125.52 96.9233 124.917 96.24C123.62 94.8033 122.013 93.9867 120.107 93.78C118.18 93.5667 116.427 94.0233 114.853 95.1467C113.29 96.2933 112.307 97.8067 111.903 99.6867C111.103 102.35 111.507 106.033 113.1 110.73C113.147 110.78 113.177 110.837 113.21 110.897C114.017 113.09 114.473 114.693 114.577 115.707C114.44 120.407 112.473 125.273 108.673 130.31C105.177 134.917 101.53 137.61 97.7367 138.403C95.7 138.703 94.0533 139.687 92.8133 141.357C91.5433 143.04 91.0567 144.92 91.3367 146.99C91.6367 149.027 92.62 150.67 94.2933 151.913C95.98 153.177 97.8533 153.67 99.9233 153.387C107.357 152.577 114.287 147.907 120.703 139.387C125.17 133.483 127.977 127.683 129.12 121.997C134.44 126.267 140.273 128.363 146.62 128.287C154.14 128.213 160.01 125.407 164.23 119.867L164.29 119.757C167.75 115.27 169.487 109.433 169.487 102.257C169.49 100.84 169.417 99.4167 169.27 97.9933C179.417 92.8533 192.487 87.55 208.48 82.08C226.457 75.8967 238.377 72.67 244.243 72.3967H244.35C249.61 72.2233 254.293 72.88 258.407 74.3667H258.517C261.643 75.48 264 77.49 265.567 80.3833C266.523 83.19 265.7 86.9967 263.11 91.8133L263.167 91.7633C259.27 97.62 248.37 102.613 230.463 106.743L230.52 106.69C209.38 111.48 189.457 116.78 170.743 122.603C168.88 123.19 167.46 124.34 166.48 126.047C165.48 127.753 165.19 129.56 165.603 131.46C166.05 133.367 167.087 134.877 168.727 136.003C170.33 137.14 172.1 137.577 174.03 137.313C202.923 133.247 226.97 131.883 246.16 133.213C262.08 134.39 271.813 137.727 275.367 143.22C278.077 148.7 278.337 153.593 276.13 157.933L276.073 157.987C273.753 162.193 270.45 164.69 266.177 165.48L266.283 165.42C260.097 166.233 248.317 165.503 230.957 163.237C213.03 160.88 195.823 157.713 179.337 153.723C177.803 153.22 176.2 152.837 174.52 152.573C174.383 152.55 174.26 152.533 174.143 152.517C173.47 152.447 172.757 152.37 172.007 152.3C169.94 152.083 168.093 152.63 166.483 153.94C164.873 155.26 163.957 156.96 163.753 159.027C163.537 161.09 164.083 162.933 165.39 164.543C166.717 166.16 168.413 167.07 170.477 167.28C171.047 167.34 171.593 167.397 172.117 167.447C172.243 167.47 172.37 167.487 172.5 167.503C173.107 167.62 173.707 167.763 174.303 167.94C174.47 168.013 174.65 168.087 174.85 168.157C177.55 169.093 180.117 170.647 182.56 172.807L182.617 172.863C185.967 175.943 187.713 179.317 187.867 182.98C187.55 186.957 185.02 190.437 180.263 193.427L180.323 193.37C174.573 196.887 168.16 198.633 161.073 198.62C152.637 198.637 144.83 196.777 137.67 193.04H137.723C130.837 189.397 127.21 184.8 126.843 179.26C126.783 177.173 127.63 175.66 129.357 174.717L129.303 174.777C131.837 173.537 135.137 172.917 139.2 172.917C140.607 173.087 143.563 174.033 148.06 175.76C148.113 175.78 148.163 175.803 148.223 175.813C152.593 177.61 155.237 178.793 156.153 179.367C157.737 180.743 159.557 181.363 161.623 181.227C163.69 181.07 165.403 180.193 166.763 178.607C168.143 177.027 168.76 175.203 168.627 173.137C168.46 171.073 167.583 169.36 166 167.997C164.747 166.683 160.66 164.607 153.747 161.763C153.687 161.747 153.637 161.73 153.583 161.707C146.357 158.937 141.567 157.647 139.203 157.823C132.187 157.817 126.513 159.02 122.197 161.433L122.137 161.49C115.287 165.197 111.83 171.087 111.747 179.15C106.167 179.393 101.48 181.86 97.6967 186.533L97.6367 186.593C94.2833 190.72 92.5 195.77 92.28 201.737C91.74 201.807 91.12 201.9 90.4167 202.01H90.3633C89.1833 202.21 88.3267 202.32 87.7933 202.34C81.42 202.29 75.86 199.81 71.1133 194.907C66.53 190.213 64.07 184.89 63.7367 178.94C63.6333 176.853 62.8133 175.11 61.27 173.69C59.7333 172.277 57.9233 171.623 55.86 171.72C53.7767 171.817 52.0267 172.637 50.6133 174.177C49.2 175.717 48.5433 177.52 48.64 179.59C48.6933 180.853 48.8033 182.093 48.9667 183.313C41.5267 182.1 36.6033 178.47 34.2067 172.43C30.9567 162.987 29.9233 153.587 31.08 144.213C32.2767 134.583 34.8467 125.76 38.78 117.74Z" fill="white"/>
</svg>
